<svg xmlns="http://www.w3.org/2000/svg" xmlns:xlink="http://www.w3.org/1999/xlink" width="1100" zoomAndPan="magnify" viewBox="0 0 824.88 225" height="300" preserveAspectRatio="xMidYMid meet" version="1.0"><defs><g/><clipPath id="d033e1507e"><path d="M 0 14.433594 L 205.300781 14.433594 L 205.300781 202.488281 L 0 202.488281 Z M 0 14.433594 " clip-rule="nonzero"/></clipPath><clipPath id="1a03b94b5e"><path d="M 0 0.433594 L 205 0.433594 L 205 188.488281 L 0 188.488281 Z M 0 0.433594 " clip-rule="nonzero"/></clipPath><clipPath id="b9fbbed45a"><rect x="0" width="206" y="0" height="189"/></clipPath><clipPath id="26ab6913c7"><path d="M 0 14.433594 L 205.292969 14.433594 L 205.292969 202.480469 L 0 202.480469 Z M 0 14.433594 " clip-rule="nonzero"/></clipPath><clipPath id="cf0a346f0e"><path d="M 60.011719 41.433594 L 121.503906 41.433594 L 121.503906 175.664062 L 60.011719 175.664062 Z M 60.011719 41.433594 " clip-rule="nonzero"/></clipPath><clipPath id="c7659dcc02"><path d="M 121.234375 72.042969 L 121.234375 144.878906 C 121.234375 152.996094 118.007812 160.78125 112.265625 166.523438 C 106.527344 172.261719 98.742188 175.488281 90.621094 175.488281 C 82.503906 175.488281 74.71875 172.261719 68.976562 166.523438 C 63.238281 160.78125 60.011719 152.996094 60.011719 144.878906 L 60.011719 72.042969 C 60.011719 63.925781 63.238281 56.136719 68.976562 50.398438 C 74.71875 44.65625 82.503906 41.433594 90.621094 41.433594 C 98.742188 41.433594 106.527344 44.65625 112.265625 50.398438 C 118.007812 56.136719 121.234375 63.925781 121.234375 72.042969 Z M 121.234375 72.042969 " clip-rule="nonzero"/></clipPath><clipPath id="c707a4bfb5"><path d="M 87.382812 41.433594 L 148.875 41.433594 L 148.875 175.664062 L 87.382812 175.664062 Z M 87.382812 41.433594 " clip-rule="nonzero"/></clipPath><clipPath id="57a6c91146"><path d="M 148.605469 72.042969 L 148.605469 144.878906 C 148.605469 152.996094 145.378906 160.78125 139.640625 166.523438 C 133.898438 172.261719 126.113281 175.488281 117.996094 175.488281 C 109.875 175.488281 102.089844 172.261719 96.351562 166.523438 C 90.609375 160.78125 87.382812 152.996094 87.382812 144.878906 L 87.382812 72.042969 C 87.382812 63.925781 90.609375 56.136719 96.351562 50.398438 C 102.089844 44.65625 109.875 41.433594 117.996094 41.433594 C 126.113281 41.433594 133.898438 44.65625 139.640625 50.398438 C 145.378906 56.136719 148.605469 63.925781 148.605469 72.042969 Z M 148.605469 72.042969 " clip-rule="nonzero"/></clipPath><clipPath id="f2f0a609f7"><path d="M 37.605469 64.164062 L 171.835938 64.164062 L 171.835938 125.65625 L 37.605469 125.65625 Z M 37.605469 64.164062 " clip-rule="nonzero"/></clipPath><clipPath id="bd55f7c15e"><path d="M 141.226562 125.382812 L 68.390625 125.382812 C 60.273438 125.382812 52.484375 122.160156 46.746094 116.417969 C 41.003906 110.679688 37.78125 102.890625 37.78125 94.773438 C 37.78125 86.65625 41.003906 78.871094 46.746094 73.128906 C 52.484375 67.390625 60.273438 64.164062 68.390625 64.164062 L 141.226562 64.164062 C 149.34375 64.164062 157.128906 67.390625 162.871094 73.128906 C 168.609375 78.871094 171.835938 86.65625 171.835938 94.773438 C 171.835938 102.890625 168.609375 110.679688 162.871094 116.417969 C 157.128906 122.160156 149.34375 125.382812 141.226562 125.382812 Z M 141.226562 125.382812 " clip-rule="nonzero"/></clipPath><clipPath id="0c667ab1b9"><path d="M 37.605469 91.535156 L 171.835938 91.535156 L 171.835938 153 L 37.605469 153 Z M 37.605469 91.535156 " clip-rule="nonzero"/></clipPath><clipPath id="8441e30075"><path d="M 141.226562 152.757812 L 68.390625 152.757812 C 60.273438 152.757812 52.484375 149.53125 46.746094 143.789062 C 41.003906 138.050781 37.78125 130.265625 37.78125 122.144531 C 37.78125 114.027344 41.003906 106.242188 46.746094 100.5 C 52.484375 94.761719 60.273438 91.535156 68.390625 91.535156 L 141.226562 91.535156 C 149.34375 91.535156 157.128906 94.761719 162.871094 100.5 C 168.609375 106.242188 171.835938 114.027344 171.835938 122.144531 C 171.835938 130.265625 168.609375 138.050781 162.871094 143.789062 C 157.128906 149.53125 149.34375 152.757812 141.226562 152.757812 Z M 141.226562 152.757812 " clip-rule="nonzero"/></clipPath><clipPath id="57d6f600b1"><path d="M 197.085938 14.433594 L 824.761719 14.433594 L 824.761719 202.488281 L 197.085938 202.488281 Z M 197.085938 14.433594 " clip-rule="nonzero"/></clipPath><clipPath id="35027cfbe4"><path d="M 0.0859375 0.433594 L 627.761719 0.433594 L 627.761719 188.488281 L 0.0859375 188.488281 Z M 0.0859375 0.433594 " clip-rule="nonzero"/></clipPath><clipPath id="81b0aa3f4b"><rect x="0" width="628" y="0" height="189"/></clipPath><clipPath id="8b8e4f0124"><rect x="0" width="584" y="0" height="131"/></clipPath></defs><g clip-path="url(#d033e1507e)"><g transform="matrix(1, 0, 0, 1, 0, 14)"><g clip-path="url(#b9fbbed45a)"><g clip-path="url(#1a03b94b5e)"><path fill="#00bf80" d="M 0 0.433594 L 204.949219 0.433594 L 204.949219 188.488281 L 0 188.488281 Z M 0 0.433594 " fill-opacity="1" fill-rule="nonzero"/></g></g></g></g><g clip-path="url(#26ab6913c7)"><path stroke-linecap="butt" transform="matrix(0.749891, 0, 0, 0.749891, 0.000267223, 14.433702)" fill="none" stroke-linejoin="miter" d="M -0.000356349 -0.000144652 L 273.763434 -0.000144652 L 273.763434 250.765507 L -0.000356349 250.765507 Z M -0.000356349 -0.000144652 " stroke="#ffffff" stroke-width="20" stroke-opacity="1" stroke-miterlimit="4"/></g><g clip-path="url(#cf0a346f0e)"><g clip-path="url(#c7659dcc02)"><path stroke-linecap="butt" transform="matrix(0.749891, 0, 0, 0.749891, 60.012637, 41.432595)" fill="none" stroke-linejoin="miter" d="M 81.640858 40.819768 L 81.640858 137.948477 C 81.640858 148.772968 77.338149 159.154686 69.680785 166.81205 C 62.02863 174.464205 51.646912 178.766914 40.817212 178.766914 C 29.992721 178.766914 19.611003 174.464205 11.953639 166.81205 C 4.301485 159.154686 -0.00122414 148.772968 -0.00122414 137.948477 L -0.00122414 40.819768 C -0.00122414 29.995277 4.301485 19.60835 11.953639 11.956196 C 19.611003 4.298832 29.992721 0.00133205 40.817212 0.00133205 C 51.646912 0.00133205 62.02863 4.298832 69.680785 11.956196 C 77.338149 19.60835 81.640858 29.995277 81.640858 40.819768 Z M 81.640858 40.819768 " stroke="#ffffff" stroke-width="22" stroke-opacity="1" stroke-miterlimit="4"/></g></g><g clip-path="url(#c707a4bfb5)"><g clip-path="url(#57a6c91146)"><path stroke-linecap="butt" transform="matrix(0.749891, 0, 0, 0.749891, 87.384402, 41.432595)" fill="none" stroke-linejoin="miter" d="M 81.639961 40.819768 L 81.639961 137.948477 C 81.639961 148.772968 77.337252 159.154686 69.685098 166.81205 C 62.027734 174.464205 51.646016 178.766914 40.821525 178.766914 C 29.991825 178.766914 19.610107 174.464205 11.957952 166.81205 C 4.300589 159.154686 -0.00212024 148.772968 -0.00212024 137.948477 L -0.00212024 40.819768 C -0.00212024 29.995277 4.300589 19.60835 11.957952 11.956196 C 19.610107 4.298832 29.991825 0.00133205 40.821525 0.00133205 C 51.646016 0.00133205 62.027734 4.298832 69.685098 11.956196 C 77.337252 19.60835 81.639961 29.995277 81.639961 40.819768 Z M 81.639961 40.819768 " stroke="#ffffff" stroke-width="22" stroke-opacity="1" stroke-miterlimit="4"/></g></g><g clip-path="url(#f2f0a609f7)"><g clip-path="url(#bd55f7c15e)"><path stroke-linecap="butt" transform="matrix(0, 0.749891, -0.749891, 0, 171.835035, 64.163942)" fill="none" stroke-linejoin="miter" d="M 81.637033 40.817233 L 81.637033 137.945942 C 81.637033 148.770433 77.339533 159.15736 69.682169 166.809514 C 62.030015 174.466878 51.643088 178.764378 40.818597 178.764378 C 29.994106 178.764378 19.612388 174.466878 11.955024 166.809514 C 4.302869 159.15736 0.000160358 148.770433 0.000160358 137.945942 L 0.000160358 40.817233 C 0.000160358 29.992742 4.302869 19.611024 11.955024 11.95366 C 19.612388 4.301506 29.994106 -0.00120349 40.818597 -0.00120349 C 51.643088 -0.00120349 62.030015 4.301506 69.682169 11.95366 C 77.339533 19.611024 81.637033 29.992742 81.637033 40.817233 Z M 81.637033 40.817233 " stroke="#ffffff" stroke-width="22" stroke-opacity="1" stroke-miterlimit="4"/></g></g><g clip-path="url(#0c667ab1b9)"><g clip-path="url(#8441e30075)"><path stroke-linecap="butt" transform="matrix(0, 0.749891, -0.749891, 0, 171.835035, 91.535715)" fill="none" stroke-linejoin="miter" d="M 81.641336 40.817233 L 81.641336 137.945942 C 81.641336 148.770433 77.338627 159.15736 69.681264 166.809514 C 62.029109 174.466878 51.647391 178.764378 40.817691 178.764378 C 29.9932 178.764378 19.611482 174.466878 11.954118 166.809514 C 4.301964 159.15736 -0.000745349 148.770433 -0.000745349 137.945942 L -0.000745349 40.817233 C -0.000745349 29.992742 4.301964 19.611024 11.954118 11.95366 C 19.611482 4.301506 29.9932 -0.00120349 40.817691 -0.00120349 C 51.647391 -0.00120349 62.029109 4.301506 69.681264 11.95366 C 77.338627 19.611024 81.641336 29.992742 81.641336 40.817233 Z M 81.641336 40.817233 " stroke="#ffffff" stroke-width="22" stroke-opacity="1" stroke-miterlimit="4"/></g></g><g clip-path="url(#57d6f600b1)"><g transform="matrix(1, 0, 0, 1, 197, 14)"><g clip-path="url(#81b0aa3f4b)"><g clip-path="url(#35027cfbe4)"><path fill="#ffffff" d="M 0.0859375 0.433594 L 628.15625 0.433594 L 628.15625 188.488281 L 0.0859375 188.488281 Z M 0.0859375 0.433594 " fill-opacity="1" fill-rule="nonzero"/></g></g></g></g><g transform="matrix(1, 0, 0, 1, 222, 43)"><g clip-path="url(#8b8e4f0124)"><g fill="#00bf80" fill-opacity="1"><g transform="translate(0.578905, 101.848851)"><g><path d="M 4.210938 -9.027344 C 4.210938 -0.601562 10.03125 0 16.25 0 L 52.15625 0 L 52.15625 -11.335938 L 20.5625 -11.335938 C 17.855469 -11.335938 16.148438 -11.433594 16.148438 -14.242188 L 16.148438 -18.355469 L 52.15625 -18.355469 L 52.15625 -38.917969 C 52.15625 -47.34375 46.339844 -47.945312 40.121094 -47.945312 L 16.25 -47.945312 C 10.03125 -47.945312 4.210938 -47.34375 4.210938 -38.917969 Z M 16.148438 -33.703125 C 16.148438 -36.507812 17.855469 -36.609375 20.5625 -36.609375 L 35.808594 -36.609375 C 38.515625 -36.609375 40.222656 -36.507812 40.222656 -33.703125 L 40.222656 -29.6875 L 16.148438 -29.6875 Z M 16.148438 -33.703125 "/></g></g></g><g fill="#00bf80" fill-opacity="1"><g transform="translate(56.946686, 101.848851)"><g><path d="M 33.703125 -18.355469 L 33.703125 -29.6875 L 3.308594 -29.6875 L 3.308594 -18.355469 Z M 33.703125 -18.355469 "/></g></g></g><g fill="#00bf80" fill-opacity="1"><g transform="translate(93.956853, 101.848851)"><g><path d="M 4.210938 -27.382812 C 4.210938 -18.957031 10.03125 -18.355469 16.25 -18.355469 L 35.808594 -18.355469 C 38.515625 -18.355469 40.222656 -18.253906 40.222656 -15.445312 L 40.222656 -14.242188 C 40.222656 -11.433594 38.515625 -11.335938 35.808594 -11.335938 L 4.210938 -11.335938 L 4.210938 0 L 40.121094 0 C 46.339844 0 52.15625 -0.601562 52.15625 -9.027344 L 52.15625 -20.664062 C 52.15625 -29.085938 46.238281 -29.6875 40.019531 -29.6875 L 20.5625 -29.6875 C 17.855469 -29.6875 16.148438 -29.789062 16.148438 -32.597656 L 16.148438 -33.703125 C 16.148438 -36.507812 17.855469 -36.609375 20.5625 -36.609375 L 52.15625 -36.609375 L 52.15625 -47.945312 L 16.25 -47.945312 C 10.03125 -47.945312 4.210938 -47.34375 4.210938 -39.015625 Z M 4.210938 -27.382812 "/></g></g></g><g fill="#00bf80" fill-opacity="1"><g transform="translate(150.324634, 101.848851)"><g><path d="M 16.148438 -15.445312 C 16.148438 -18.253906 17.855469 -18.355469 20.5625 -18.355469 L 40.121094 -18.355469 L 40.121094 -11.335938 L 20.5625 -11.335938 C 17.855469 -11.335938 16.148438 -11.433594 16.148438 -14.242188 Z M 52.15625 -38.917969 C 52.15625 -47.34375 46.339844 -47.945312 40.121094 -47.945312 L 4.210938 -47.945312 L 4.210938 -36.609375 L 35.707031 -36.609375 C 38.414062 -36.609375 40.121094 -36.507812 40.121094 -33.703125 L 40.121094 -29.6875 L 16.25 -29.6875 C 10.03125 -29.6875 4.210938 -29.085938 4.210938 -20.664062 L 4.210938 -9.027344 C 4.210938 -0.601562 10.03125 0 16.25 0 L 52.15625 0 Z M 52.15625 -38.917969 "/></g></g></g><g fill="#00bf80" fill-opacity="1"><g transform="translate(206.692415, 101.848851)"><g><path d="M 4.714844 -47.945312 L 4.714844 0 L 16.648438 0 L 16.648438 -36.609375 L 40.722656 -36.609375 L 40.722656 0 L 52.660156 0 L 52.660156 -36.609375 L 72.316406 -36.609375 C 75.027344 -36.609375 76.730469 -36.507812 76.730469 -33.703125 L 76.730469 0 L 88.667969 0 L 88.667969 -38.917969 C 88.667969 -47.34375 82.847656 -47.945312 76.628906 -47.945312 Z M 4.714844 -47.945312 "/></g></g></g><g fill="#00bf80" fill-opacity="1"><g transform="translate(299.568871, 101.848851)"><g><path d="M 16.148438 -15.445312 C 16.148438 -18.253906 17.855469 -18.355469 20.5625 -18.355469 L 40.121094 -18.355469 L 40.121094 -11.335938 L 20.5625 -11.335938 C 17.855469 -11.335938 16.148438 -11.433594 16.148438 -14.242188 Z M 52.15625 -38.917969 C 52.15625 -47.34375 46.339844 -47.945312 40.121094 -47.945312 L 4.210938 -47.945312 L 4.210938 -36.609375 L 35.707031 -36.609375 C 38.414062 -36.609375 40.121094 -36.507812 40.121094 -33.703125 L 40.121094 -29.6875 L 16.25 -29.6875 C 10.03125 -29.6875 4.210938 -29.085938 4.210938 -20.664062 L 4.210938 -9.027344 C 4.210938 -0.601562 10.03125 0 16.25 0 L 52.15625 0 Z M 52.15625 -38.917969 "/></g></g></g><g fill="#00bf80" fill-opacity="1"><g transform="translate(355.936652, 101.848851)"><g><path d="M 52.15625 0 L 52.15625 -66.902344 L 40.222656 -66.902344 L 40.222656 -47.945312 L 16.25 -47.945312 C 10.03125 -47.945312 4.210938 -47.34375 4.210938 -38.917969 L 4.210938 -9.027344 C 4.210938 -0.601562 10.03125 0 16.25 0 Z M 16.148438 -33.703125 C 16.148438 -36.507812 17.855469 -36.609375 20.5625 -36.609375 L 40.222656 -36.609375 L 40.222656 -11.335938 L 20.5625 -11.335938 C 17.855469 -11.335938 16.148438 -11.433594 16.148438 -14.242188 Z M 16.148438 -33.703125 "/></g></g></g><g fill="#00bf80" fill-opacity="1"><g transform="translate(412.805926, 101.848851)"><g><path d="M 40.722656 0 L 52.660156 0 L 52.660156 -38.917969 C 52.660156 -47.34375 46.839844 -47.945312 40.621094 -47.945312 L 16.648438 -47.945312 L 16.648438 -66.902344 L 4.714844 -66.902344 L 4.714844 0 L 16.648438 0 L 16.648438 -36.609375 L 36.308594 -36.609375 C 39.015625 -36.609375 40.722656 -36.507812 40.722656 -33.703125 Z M 40.722656 0 "/></g></g></g><g fill="#00bf80" fill-opacity="1"><g transform="translate(469.6752, 101.848851)"><g><path d="M 16.148438 -15.445312 C 16.148438 -18.253906 17.855469 -18.355469 20.5625 -18.355469 L 40.121094 -18.355469 L 40.121094 -11.335938 L 20.5625 -11.335938 C 17.855469 -11.335938 16.148438 -11.433594 16.148438 -14.242188 Z M 52.15625 -38.917969 C 52.15625 -47.34375 46.339844 -47.945312 40.121094 -47.945312 L 4.210938 -47.945312 L 4.210938 -36.609375 L 35.707031 -36.609375 C 38.414062 -36.609375 40.121094 -36.507812 40.121094 -33.703125 L 40.121094 -29.6875 L 16.25 -29.6875 C 10.03125 -29.6875 4.210938 -29.085938 4.210938 -20.664062 L 4.210938 -9.027344 C 4.210938 -0.601562 10.03125 0 16.25 0 L 52.15625 0 Z M 52.15625 -38.917969 "/></g></g></g><g fill="#00bf80" fill-opacity="1"><g transform="translate(526.042982, 101.848851)"><g><path d="M 40.722656 0 L 52.660156 0 L 52.660156 -38.917969 C 52.660156 -47.34375 46.839844 -47.945312 40.621094 -47.945312 L 4.714844 -47.945312 L 4.714844 0 L 16.648438 0 L 16.648438 -36.609375 L 36.308594 -36.609375 C 39.015625 -36.609375 40.722656 -36.507812 40.722656 -33.703125 Z M 40.722656 0 "/></g></g></g></g></g></svg>